<svg xmlns="http://www.w3.org/2000/svg" xmlns:xlink="http://www.w3.org/1999/xlink" width="600" zoomAndPan="magnify" viewBox="0 0 450 449.999984" height="600" preserveAspectRatio="xMidYMid meet" version="1.0"><defs><clipPath id="id1"><path d="M 55.199219 45 L 404.699219 45 L 404.699219 394.5 L 55.199219 394.5 Z M 55.199219 45 " clip-rule="nonzero"/></clipPath><clipPath id="id2"><path d="M 100.351562 97 L 359.851562 97 L 359.851562 343 L 100.351562 343 Z M 100.351562 97 " clip-rule="nonzero"/></clipPath></defs><g clip-path="url(#id1)"><path fill="rgb(100%, 100%, 100%)" d="M 142.613281 44.957031 C 94.363281 44.957031 55.238281 84.078125 55.238281 132.332031 L 55.238281 307.082031 C 55.238281 355.335938 94.363281 394.457031 142.613281 394.457031 L 317.363281 394.457031 C 365.617188 394.457031 404.738281 355.335938 404.738281 307.082031 L 404.738281 132.332031 C 404.738281 84.078125 365.617188 44.957031 317.363281 44.957031 Z M 142.613281 44.957031 " fill-opacity="1" fill-rule="nonzero"/></g><g clip-path="url(#id2)"><path fill="rgb(0%, 0%, 0%)" d="M 342.324219 342.550781 C 343.019531 342.550781 343.707031 342.511719 344.398438 342.429688 C 345.085938 342.347656 345.769531 342.226562 346.441406 342.0625 C 347.117188 341.902344 347.78125 341.699219 348.429688 341.457031 C 349.082031 341.21875 349.714844 340.9375 350.332031 340.621094 C 350.949219 340.304688 351.546875 339.953125 352.121094 339.566406 C 352.695312 339.179688 353.246094 338.757812 353.773438 338.308594 C 354.296875 337.855469 354.796875 337.371094 355.261719 336.859375 C 355.730469 336.347656 356.167969 335.8125 356.574219 335.246094 C 356.976562 334.683594 357.347656 334.097656 357.683594 333.492188 C 358.015625 332.882812 358.316406 332.257812 358.574219 331.617188 C 358.835938 330.972656 359.058594 330.316406 359.242188 329.648438 C 359.421875 328.976562 359.566406 328.300781 359.667969 327.613281 C 359.769531 326.929688 359.832031 326.238281 359.851562 325.546875 C 359.871094 324.851562 359.851562 324.160156 359.789062 323.46875 C 359.726562 322.777344 359.625 322.09375 359.480469 321.414062 C 359.335938 320.734375 359.15625 320.066406 358.933594 319.410156 L 358.933594 319.433594 L 287.949219 109.183594 C 287.65625 108.320312 287.300781 107.484375 286.878906 106.679688 C 286.460938 105.871094 285.980469 105.101562 285.4375 104.367188 C 284.898438 103.636719 284.300781 102.949219 283.65625 102.308594 C 283.007812 101.667969 282.3125 101.082031 281.574219 100.550781 C 280.835938 100.019531 280.058594 99.550781 279.246094 99.140625 C 278.433594 98.726562 277.59375 98.382812 276.726562 98.105469 C 275.859375 97.824219 274.976562 97.613281 274.078125 97.472656 C 273.175781 97.328125 272.273438 97.257812 271.363281 97.257812 L 188.839844 97.257812 C 187.929688 97.257812 187.023438 97.328125 186.125 97.472656 C 185.226562 97.613281 184.34375 97.824219 183.476562 98.105469 C 182.609375 98.382812 181.769531 98.726562 180.957031 99.140625 C 180.144531 99.550781 179.367188 100.019531 178.628906 100.550781 C 177.890625 101.082031 177.195312 101.667969 176.546875 102.308594 C 175.898438 102.949219 175.304688 103.636719 174.765625 104.367188 C 174.222656 105.101562 173.742188 105.871094 173.320312 106.679688 C 172.902344 107.484375 172.542969 108.320312 172.253906 109.183594 L 101.28125 319.421875 C 101.058594 320.078125 100.875 320.746094 100.734375 321.425781 C 100.589844 322.101562 100.488281 322.789062 100.425781 323.476562 C 100.367188 324.167969 100.34375 324.859375 100.367188 325.554688 C 100.386719 326.246094 100.449219 326.9375 100.550781 327.621094 C 100.652344 328.308594 100.796875 328.984375 100.976562 329.652344 C 101.160156 330.324219 101.382812 330.976562 101.644531 331.621094 C 101.902344 332.261719 102.203125 332.886719 102.535156 333.496094 C 102.871094 334.101562 103.242188 334.6875 103.644531 335.25 C 104.050781 335.8125 104.488281 336.351562 104.953125 336.863281 C 105.421875 337.375 105.921875 337.855469 106.445312 338.308594 C 106.972656 338.761719 107.519531 339.179688 108.097656 339.566406 C 108.671875 339.953125 109.269531 340.304688 109.886719 340.621094 C 110.503906 340.9375 111.136719 341.214844 111.785156 341.457031 C 112.4375 341.699219 113.097656 341.902344 113.773438 342.0625 C 114.445312 342.226562 115.128906 342.347656 115.816406 342.429688 C 116.503906 342.511719 117.195312 342.550781 117.890625 342.550781 L 169.152344 342.550781 C 170.0625 342.550781 170.96875 342.480469 171.867188 342.335938 C 172.769531 342.195312 173.652344 341.984375 174.519531 341.707031 C 175.386719 341.425781 176.226562 341.082031 177.039062 340.671875 C 177.851562 340.261719 178.628906 339.789062 179.371094 339.257812 C 180.109375 338.726562 180.804688 338.140625 181.453125 337.5 C 182.101562 336.859375 182.695312 336.175781 183.238281 335.441406 C 183.777344 334.707031 184.257812 333.9375 184.679688 333.128906 C 185.101562 332.324219 185.457031 331.488281 185.75 330.625 L 196.3125 299.355469 L 249.800781 339.089844 C 252.828125 341.339844 256.484375 342.550781 260.246094 342.550781 M 226.902344 207.058594 L 266.085938 323.171875 C 266.234375 323.613281 266.328125 324.0625 266.371094 324.523438 C 266.410156 324.984375 266.398438 325.445312 266.328125 325.902344 C 266.261719 326.359375 266.140625 326.804688 265.96875 327.234375 C 265.792969 327.660156 265.574219 328.066406 265.304688 328.441406 C 265.035156 328.816406 264.722656 329.15625 264.375 329.460938 C 264.023438 329.761719 263.644531 330.019531 263.230469 330.234375 C 262.820312 330.445312 262.390625 330.605469 261.941406 330.714844 C 261.488281 330.828125 261.035156 330.882812 260.570312 330.882812 L 260.570312 330.871094 L 260.246094 330.871094 C 258.960938 330.875 257.800781 330.492188 256.765625 329.726562 L 156.347656 255.121094 L 208.820312 255.121094 M 277.082031 330.871094 C 278.335938 327.347656 278.488281 323.367188 277.15625 319.433594 L 206.207031 109.183594 C 206.179688 109.113281 206.15625 109.039062 206.128906 108.96875 L 271.371094 108.96875 C 271.984375 108.964844 272.578125 109.058594 273.160156 109.246094 C 273.742188 109.429688 274.28125 109.703125 274.777344 110.054688 C 275.273438 110.410156 275.703125 110.832031 276.066406 111.324219 C 276.429688 111.8125 276.710938 112.347656 276.910156 112.925781 L 347.859375 323.171875 C 347.980469 323.535156 348.066406 323.90625 348.117188 324.289062 C 348.167969 324.667969 348.179688 325.046875 348.152344 325.429688 C 348.128906 325.8125 348.066406 326.1875 347.964844 326.558594 C 347.867188 326.929688 347.730469 327.285156 347.5625 327.628906 C 347.394531 327.972656 347.191406 328.292969 346.957031 328.597656 C 346.726562 328.902344 346.464844 329.179688 346.175781 329.433594 C 345.886719 329.683594 345.578125 329.90625 345.246094 330.097656 C 344.914062 330.289062 344.566406 330.445312 344.207031 330.570312 " fill-opacity="1" fill-rule="nonzero"/></g></svg>