<svg xmlns="http://www.w3.org/2000/svg" xmlns:xlink="http://www.w3.org/1999/xlink" width="600" zoomAndPan="magnify" viewBox="0 0 450 449.999984" height="600" preserveAspectRatio="xMidYMid meet" version="1.0"><defs><clipPath id="id1"><path d="M 55.199219 45 L 404.699219 45 L 404.699219 394.5 L 55.199219 394.5 Z M 55.199219 45 " clip-rule="nonzero"/></clipPath><clipPath id="id2"><path d="M 105 75.226562 L 363 75.226562 L 363 364.726562 L 105 364.726562 Z M 105 75.226562 " clip-rule="nonzero"/></clipPath></defs><g clip-path="url(#id1)"><path fill="rgb(100%, 100%, 100%)" d="M 142.613281 44.957031 C 94.363281 44.957031 55.238281 84.078125 55.238281 132.332031 L 55.238281 307.082031 C 55.238281 355.335938 94.363281 394.457031 142.613281 394.457031 L 317.363281 394.457031 C 365.617188 394.457031 404.738281 355.335938 404.738281 307.082031 L 404.738281 132.332031 C 404.738281 84.078125 365.617188 44.957031 317.363281 44.957031 Z M 142.613281 44.957031 " fill-opacity="1" fill-rule="nonzero"/></g><g clip-path="url(#id2)"><path fill="rgb(3.529358%, 3.529358%, 3.529358%)" d="M 359.699219 147.601562 C 357.683594 144.101562 354.898438 141.050781 351.835938 139.277344 L 245.492188 77.878906 C 239.351562 74.332031 229.328125 74.332031 223.199219 77.878906 L 116.832031 139.277344 C 110.707031 142.8125 105.699219 151.496094 105.699219 158.578125 L 105.699219 281.375 C 105.699219 284.921875 106.953125 288.851562 108.96875 292.351562 C 110.984375 295.847656 113.769531 298.902344 116.832031 300.675781 L 223.175781 362.070312 C 229.304688 365.605469 239.339844 365.605469 245.46875 362.070312 L 351.8125 300.675781 C 354.875 298.902344 357.660156 295.847656 359.675781 292.351562 C 361.691406 288.851562 362.933594 284.921875 362.933594 281.375 L 362.933594 158.578125 C 362.96875 155.03125 361.726562 151.097656 359.699219 147.601562 Z M 234.324219 305.738281 C 187.039062 305.738281 148.570312 267.261719 148.570312 219.976562 C 148.570312 172.691406 187.050781 134.210938 234.335938 134.210938 C 238.078125 134.21875 241.808594 134.46875 245.519531 134.964844 C 249.230469 135.457031 252.898438 136.191406 256.511719 137.164062 C 260.128906 138.136719 263.667969 139.339844 267.128906 140.773438 C 270.585938 142.207031 273.9375 143.859375 277.179688 145.734375 C 280.425781 147.605469 283.53125 149.679688 286.503906 151.957031 C 289.476562 154.234375 292.289062 156.695312 294.941406 159.339844 C 297.59375 161.988281 300.058594 164.792969 302.34375 167.761719 C 304.628906 170.726562 306.710938 173.832031 308.589844 177.070312 L 271.488281 198.539062 C 270.546875 196.917969 269.507812 195.363281 268.363281 193.878906 C 267.222656 192.390625 265.988281 190.984375 264.664062 189.660156 C 263.335938 188.335938 261.929688 187.101562 260.441406 185.960938 C 258.957031 184.820312 257.402344 183.78125 255.777344 182.84375 C 254.15625 181.90625 252.476562 181.078125 250.746094 180.359375 C 249.015625 179.640625 247.246094 179.035156 245.433594 178.550781 C 243.625 178.0625 241.792969 177.695312 239.933594 177.445312 C 238.074219 177.199219 236.207031 177.074219 234.335938 177.070312 C 232.929688 177.070312 231.527344 177.140625 230.128906 177.28125 C 228.730469 177.417969 227.34375 177.625 225.964844 177.898438 C 224.589844 178.175781 223.226562 178.515625 221.882812 178.925781 C 220.539062 179.332031 219.21875 179.808594 217.921875 180.34375 C 216.621094 180.882812 215.355469 181.484375 214.117188 182.144531 C 212.875 182.808594 211.671875 183.53125 210.503906 184.3125 C 209.335938 185.09375 208.210938 185.929688 207.125 186.820312 C 206.039062 187.710938 205 188.652344 204.003906 189.648438 C 203.011719 190.640625 202.070312 191.679688 201.179688 192.765625 C 200.285156 193.851562 199.449219 194.980469 198.671875 196.148438 C 197.890625 197.316406 197.167969 198.519531 196.503906 199.757812 C 195.84375 200.996094 195.242188 202.265625 194.703125 203.5625 C 194.164062 204.859375 193.691406 206.179688 193.285156 207.523438 C 192.875 208.867188 192.535156 210.230469 192.257812 211.609375 C 191.984375 212.984375 191.777344 214.375 191.636719 215.769531 C 191.5 217.167969 191.429688 218.570312 191.429688 219.976562 C 191.429688 221.378906 191.5 222.78125 191.640625 224.179688 C 191.78125 225.574219 191.988281 226.960938 192.261719 228.339844 C 192.539062 229.714844 192.878906 231.074219 193.289062 232.417969 C 193.699219 233.761719 194.171875 235.082031 194.710938 236.378906 C 195.246094 237.675781 195.847656 238.945312 196.511719 240.183594 C 197.171875 241.417969 197.894531 242.621094 198.675781 243.789062 C 199.457031 244.957031 200.292969 246.082031 201.183594 247.167969 C 202.074219 248.253906 203.015625 249.292969 204.011719 250.285156 C 205.003906 251.277344 206.042969 252.21875 207.128906 253.109375 C 208.214844 254 209.339844 254.835938 210.507812 255.617188 C 211.675781 256.398438 212.875 257.117188 214.113281 257.78125 C 215.351562 258.441406 216.621094 259.042969 217.917969 259.582031 C 219.214844 260.117188 220.535156 260.59375 221.878906 261 C 223.222656 261.410156 224.582031 261.75 225.957031 262.027344 C 227.335938 262.300781 228.722656 262.507812 230.121094 262.648438 C 231.515625 262.785156 232.917969 262.855469 234.324219 262.859375 C 236.195312 262.855469 238.0625 262.726562 239.917969 262.480469 C 241.777344 262.234375 243.609375 261.867188 245.417969 261.378906 C 247.226562 260.890625 249 260.289062 250.730469 259.570312 C 252.460938 258.855469 254.136719 258.027344 255.757812 257.089844 C 257.382812 256.152344 258.9375 255.113281 260.425781 253.976562 C 261.910156 252.835938 263.316406 251.605469 264.644531 250.28125 C 265.972656 248.957031 267.207031 247.554688 268.347656 246.070312 C 269.492188 244.585938 270.535156 243.03125 271.476562 241.410156 L 308.601562 262.882812 C 306.722656 266.121094 304.640625 269.226562 302.355469 272.191406 C 300.066406 275.160156 297.597656 277.96875 294.945312 280.613281 C 292.292969 283.257812 289.480469 285.71875 286.507812 287.996094 C 283.535156 290.273438 280.425781 292.351562 277.179688 294.222656 C 273.9375 296.09375 270.585938 297.746094 267.125 299.179688 C 263.664062 300.617188 260.125 301.820312 256.507812 302.789062 C 252.890625 303.761719 249.222656 304.496094 245.511719 304.988281 C 241.796875 305.484375 238.066406 305.734375 234.324219 305.738281 Z M 320.085938 224.742188 L 310.558594 224.742188 L 310.558594 234.269531 L 301.027344 234.269531 L 301.027344 224.742188 L 291.5 224.742188 L 291.5 215.210938 L 301.027344 215.210938 L 301.027344 205.683594 L 310.558594 205.683594 L 310.558594 215.210938 L 320.085938 215.210938 Z M 355.816406 224.742188 L 346.285156 224.742188 L 346.285156 234.269531 L 336.757812 234.269531 L 336.757812 224.742188 L 327.226562 224.742188 L 327.226562 215.210938 L 336.757812 215.210938 L 336.757812 205.683594 L 346.285156 205.683594 L 346.285156 215.210938 L 355.816406 215.210938 Z M 355.816406 224.742188 " fill-opacity="1" fill-rule="nonzero"/></g></svg>