<svg xmlns="http://www.w3.org/2000/svg" xmlns:xlink="http://www.w3.org/1999/xlink" width="600" zoomAndPan="magnify" viewBox="0 0 450 449.999984" height="600" preserveAspectRatio="xMidYMid meet" version="1.0"><defs><clipPath id="id1"><path d="M 55.199219 45 L 404.699219 45 L 404.699219 394.5 L 55.199219 394.5 Z M 55.199219 45 " clip-rule="nonzero"/></clipPath><clipPath id="id2"><path d="M 111 106.164062 L 314 106.164062 L 314 365.664062 L 111 365.664062 Z M 111 106.164062 " clip-rule="nonzero"/></clipPath></defs><g clip-path="url(#id1)"><path fill="rgb(100%, 100%, 100%)" d="M 142.613281 44.957031 C 94.363281 44.957031 55.238281 84.078125 55.238281 132.332031 L 55.238281 307.082031 C 55.238281 355.335938 94.363281 394.457031 142.613281 394.457031 L 317.363281 394.457031 C 365.617188 394.457031 404.738281 355.335938 404.738281 307.082031 L 404.738281 132.332031 C 404.738281 84.078125 365.617188 44.957031 317.363281 44.957031 Z M 142.613281 44.957031 " fill-opacity="1" fill-rule="nonzero"/></g><g clip-path="url(#id2)"><path fill="rgb(2.749634%, 2.349854%, 2.349854%)" d="M 203.445312 106.164062 L 245.871094 106.164062 L 245.871094 302.582031 C 224.105469 306.714844 208.125 308.367188 190.773438 308.367188 C 138.96875 308.367188 111.96875 284.949219 111.96875 240.03125 C 111.96875 196.761719 140.625 168.671875 184.988281 168.671875 C 191.875 168.671875 197.109375 169.210938 203.445312 170.867188 Z M 203.445312 205.023438 C 198.796875 203.453125 194.019531 202.71875 189.117188 202.816406 C 167.621094 202.816406 155.230469 216.039062 155.230469 239.199219 C 155.230469 261.796875 167.082031 274.191406 188.847656 274.191406 C 193.527344 274.191406 197.390625 273.917969 203.445312 273.085938 L 203.445312 205.011719 Z M 313.386719 171.6875 L 313.386719 270.058594 C 313.386719 303.945312 310.910156 320.207031 303.46875 334.253906 C 296.582031 347.757812 287.488281 356.300781 268.75 365.664062 L 229.351562 346.925781 C 248.089844 338.113281 257.183594 330.382812 262.964844 318.542969 C 269.03125 306.421875 270.957031 292.367188 270.957031 255.453125 L 270.957031 171.675781 L 313.386719 171.675781 Z M 270.957031 106.390625 L 313.386719 106.390625 L 313.386719 149.921875 L 270.957031 149.921875 Z M 270.957031 106.390625 " fill-opacity="1" fill-rule="nonzero"/></g></svg>