<svg xmlns="http://www.w3.org/2000/svg" xmlns:xlink="http://www.w3.org/1999/xlink" width="600" zoomAndPan="magnify" viewBox="0 0 450 449.999984" height="600" preserveAspectRatio="xMidYMid meet" version="1.0"><defs><clipPath id="id1"><path d="M 55.199219 45 L 404.699219 45 L 404.699219 394.5 L 55.199219 394.5 Z M 55.199219 45 " clip-rule="nonzero"/></clipPath><clipPath id="id2"><path d="M 89.574219 79.375 L 370.824219 79.375 L 370.824219 360.625 L 89.574219 360.625 Z M 89.574219 79.375 " clip-rule="nonzero"/></clipPath></defs><g clip-path="url(#id1)"><path fill="rgb(100%, 100%, 100%)" d="M 142.613281 44.957031 C 94.363281 44.957031 55.238281 84.078125 55.238281 132.332031 L 55.238281 307.082031 C 55.238281 355.335938 94.363281 394.457031 142.613281 394.457031 L 317.363281 394.457031 C 365.617188 394.457031 404.738281 355.335938 404.738281 307.082031 L 404.738281 132.332031 C 404.738281 84.078125 365.617188 44.957031 317.363281 44.957031 Z M 142.613281 44.957031 " fill-opacity="1" fill-rule="nonzero"/></g><g clip-path="url(#id2)"><path fill="rgb(0%, 0%, 0%)" d="M 256.566406 81.484375 L 267.113281 83.828125 L 275.667969 86.875 L 282.582031 90.390625 L 287.855469 94.140625 L 291.839844 98.125 L 294.769531 102.109375 L 296.644531 105.976562 L 297.816406 109.492188 L 298.285156 112.539062 L 298.519531 114.882812 L 298.402344 116.40625 L 298.402344 178.984375 L 297.816406 186.367188 L 296.292969 192.8125 L 293.832031 198.203125 L 290.785156 202.65625 L 287.269531 206.289062 L 283.402344 209.21875 L 279.300781 211.445312 L 275.199219 213.085938 L 271.332031 214.257812 L 267.816406 215.078125 L 264.769531 215.546875 L 262.308594 215.78125 L 192.347656 215.78125 L 184.261719 216.367188 L 177.347656 218.007812 L 171.488281 220.585938 L 166.683594 223.75 L 162.816406 227.5 L 159.652344 231.601562 L 157.308594 235.820312 L 155.550781 240.15625 L 154.378906 244.257812 L 153.558594 248.007812 L 153.089844 251.171875 L 152.855469 253.632812 L 152.855469 289.492188 L 126.722656 289.492188 L 124.261719 289.140625 L 120.980469 288.320312 L 117.230469 286.914062 L 113.128906 284.804688 L 108.910156 281.757812 L 104.691406 277.539062 L 100.589844 272.148438 L 96.839844 265.234375 L 93.558594 256.679688 L 91.097656 246.367188 L 89.457031 234.0625 L 88.871094 219.648438 L 89.574219 205.351562 L 91.449219 193.164062 L 94.261719 182.96875 L 98.011719 174.648438 L 102.230469 167.96875 L 106.917969 162.8125 L 111.839844 158.945312 L 116.761719 156.132812 L 121.449219 154.257812 L 125.667969 153.085938 L 129.417969 152.5 L 132.230469 152.382812 L 134.105469 152.382812 L 134.808594 152.5 L 230.433594 152.5 L 230.433594 142.773438 L 161.996094 142.773438 L 161.878906 110.546875 L 161.644531 106.210938 L 162.230469 102.226562 L 163.519531 98.59375 L 165.511719 95.3125 L 168.441406 92.265625 L 172.074219 89.570312 L 176.527344 87.226562 L 181.683594 85.117188 L 187.660156 83.359375 L 194.457031 81.953125 L 201.957031 80.78125 L 210.277344 80.078125 L 219.300781 79.609375 L 229.144531 79.375 L 244.027344 79.960938 Z M 182.738281 104.6875 L 180.042969 108.554688 L 179.105469 113.359375 L 180.042969 118.164062 L 182.738281 122.148438 L 186.605469 124.726562 L 191.410156 125.78125 L 196.214844 124.726562 L 200.082031 122.148438 L 202.777344 118.164062 L 203.714844 113.359375 L 202.777344 108.554688 L 200.082031 104.6875 L 196.214844 102.109375 L 191.410156 101.054688 L 186.605469 102.109375 Z M 336.136719 150.976562 L 339.417969 151.679688 L 343.167969 153.085938 L 347.269531 155.195312 L 351.488281 158.359375 L 355.707031 162.460938 L 359.808594 167.96875 L 363.558594 174.882812 L 366.839844 183.4375 L 369.300781 193.75 L 370.941406 205.9375 L 371.527344 220.351562 L 370.824219 234.765625 L 368.949219 246.953125 L 366.136719 257.03125 L 362.386719 265.351562 L 358.167969 272.03125 L 353.480469 277.304688 L 348.558594 281.171875 L 343.636719 283.984375 L 338.949219 285.859375 L 334.730469 286.914062 L 330.980469 287.5 L 328.167969 287.734375 L 326.292969 287.617188 L 229.964844 287.617188 L 229.964844 297.226562 L 298.402344 297.226562 L 298.519531 329.570312 L 298.753906 333.789062 L 298.167969 337.773438 L 296.878906 341.40625 L 294.886719 344.804688 L 291.957031 347.734375 L 288.324219 350.546875 L 283.871094 352.890625 L 278.714844 354.882812 L 272.738281 356.640625 L 265.941406 358.164062 L 258.441406 359.21875 L 250.121094 360.039062 L 241.097656 360.507812 L 231.253906 360.625 L 216.371094 360.15625 L 203.832031 358.515625 L 193.285156 356.171875 L 184.730469 353.242188 L 177.816406 349.726562 L 172.542969 345.859375 L 168.558594 341.875 L 165.628906 337.890625 L 163.753906 334.023438 L 162.582031 330.507812 L 162.113281 327.578125 L 161.878906 325.234375 L 161.996094 323.710938 L 161.996094 261.132812 L 162.582031 253.632812 L 164.105469 247.304688 L 166.566406 241.914062 L 169.613281 237.460938 L 173.128906 233.710938 L 176.996094 230.898438 L 181.097656 228.554688 L 185.199219 226.914062 L 189.066406 225.742188 L 192.582031 225.039062 L 195.628906 224.570312 L 198.089844 224.335938 L 199.613281 224.21875 L 268.050781 224.21875 L 276.136719 223.632812 L 283.050781 221.992188 L 288.910156 219.53125 L 293.714844 216.25 L 297.582031 212.5 L 300.746094 208.398438 L 303.089844 204.179688 L 304.847656 199.960938 L 306.019531 195.859375 L 306.839844 192.109375 L 307.308594 188.828125 L 307.542969 186.367188 L 307.542969 150.507812 L 332.035156 150.507812 L 333.675781 150.625 Z M 260.316406 317.96875 L 257.621094 321.835938 L 256.683594 326.640625 L 257.621094 331.445312 L 260.316406 335.3125 L 264.183594 338.007812 L 268.988281 338.945312 L 273.792969 338.007812 L 277.660156 335.3125 L 280.355469 331.445312 L 281.292969 326.640625 L 280.355469 321.835938 L 277.660156 317.96875 L 273.792969 315.273438 L 268.988281 314.335938 L 264.183594 315.273438 Z M 260.316406 317.96875 " fill-opacity="1" fill-rule="nonzero"/></g></svg>