<svg xmlns="http://www.w3.org/2000/svg" xmlns:xlink="http://www.w3.org/1999/xlink" width="600" zoomAndPan="magnify" viewBox="0 0 450 449.999984" height="600" preserveAspectRatio="xMidYMid meet" version="1.0"><defs><clipPath id="id1"><path d="M 55.199219 45 L 404.699219 45 L 404.699219 394.5 L 55.199219 394.5 Z M 55.199219 45 " clip-rule="nonzero"/></clipPath><clipPath id="id2"><path d="M 93.242188 119 L 367.742188 119 L 367.742188 322 L 93.242188 322 Z M 93.242188 119 " clip-rule="nonzero"/></clipPath></defs><g clip-path="url(#id1)"><path fill="rgb(100%, 100%, 100%)" d="M 142.613281 44.957031 C 94.363281 44.957031 55.238281 84.078125 55.238281 132.332031 L 55.238281 307.082031 C 55.238281 355.335938 94.363281 394.457031 142.613281 394.457031 L 317.363281 394.457031 C 365.617188 394.457031 404.738281 355.335938 404.738281 307.082031 L 404.738281 132.332031 C 404.738281 84.078125 365.617188 44.957031 317.363281 44.957031 Z M 142.613281 44.957031 " fill-opacity="1" fill-rule="nonzero"/></g><g clip-path="url(#id2)"><path fill="rgb(0%, 0%, 0%)" d="M 341.359375 119.210938 L 131.332031 119.210938 L 93.242188 157.277344 L 93.242188 321.382812 L 329.667969 321.382812 L 367.742188 283.316406 L 367.742188 119.210938 Z M 239.472656 293.496094 L 221.605469 301.824219 L 206.167969 276.464844 C 203.925781 277.117188 200.460938 277.496094 195.597656 277.496094 C 177.539062 277.496094 164.910156 272.632812 157.796875 262.902344 C 150.683594 253.179688 147.136719 237.738281 147.136719 216.773438 C 147.136719 195.730469 150.785156 180.105469 157.992188 169.902344 C 165.195312 159.699219 177.734375 154.566406 195.597656 154.566406 C 213.464844 154.566406 226 159.609375 233.113281 169.8125 C 240.320312 179.910156 243.863281 195.546875 243.863281 216.683594 C 243.863281 230.625 242.378906 241.84375 239.472656 250.367188 C 236.488281 258.964844 231.707031 265.519531 224.96875 270.015625 Z M 293.640625 275.34375 C 283.828125 275.34375 277.089844 273.101562 273.441406 268.597656 C 269.78125 264.113281 267.917969 255.605469 267.917969 243.070312 L 267.917969 202.648438 L 254.628906 202.648438 L 254.628906 186.566406 L 267.917969 186.566406 L 267.917969 161.3125 L 286.71875 161.3125 L 286.71875 186.554688 L 310.671875 186.554688 L 310.671875 202.738281 L 286.71875 202.738281 L 286.71875 241.011719 C 286.71875 248.125 287.292969 252.789062 288.320312 255.042969 C 289.351562 257.375 292.050781 258.507812 296.269531 258.507812 L 310.488281 257.9375 L 311.324219 273.101562 C 303.660156 274.589844 297.757812 275.34375 293.640625 275.34375 Z M 195.507812 171.492188 C 184.640625 171.492188 177.160156 175.050781 173.054688 182.242188 C 169.027344 189.449219 166.96875 200.875 166.96875 216.683594 C 166.96875 232.398438 168.9375 243.71875 172.859375 250.457031 C 176.792969 257.195312 184.367188 260.660156 195.507812 260.660156 C 206.636719 260.660156 214.125 257.285156 218.050781 250.640625 C 221.882812 244.007812 223.847656 232.683594 223.847656 216.863281 C 223.847656 200.96875 221.882812 189.460938 217.867188 182.253906 C 213.839844 175.050781 206.359375 171.503906 195.507812 171.503906 Z M 195.507812 171.492188 " fill-opacity="1" fill-rule="nonzero"/></g></svg>